<?xml version="1.0" encoding="UTF-8"?>
<svg xmlns="http://www.w3.org/2000/svg" width="1100" height="340" viewBox="0 0 1100 340">
<title>Perfil de altitud - Ruta Gastronómica por Gijón Centro</title>
<rect x="850" y="10" width="200" height="80" fill="white" stroke="black"/>
<text x="860" y="30" font-size="12">Leyenda:</text>
<line x1="860" y1="45" x2="900" y2="45" style="stroke:red;stroke-width:2"/>
<text x="910" y="50" font-size="12">Perfil de altitud</text>
<line x1="860" y1="65" x2="900" y2="65" style="stroke:blue;stroke-dasharray:5,5"/>
<text x="910" y="70" font-size="12">Nivel del mar</text>
<line x1="0" y1="240" x2="1040" y2="240" style="stroke:blue;stroke-width:1;stroke-dasharray:5,5"/>
<text x="10" y="260" font-size="12" fill="blue">Nivel del mar (0m)</text>
<polyline points="0,140 0,140 462,140 520,120 866,120 1040,120" style="fill:none;stroke:red;stroke-width:2"/>
<line x1="0" y1="140" x2="0" y2="240" style="stroke:gray;stroke-width:1;stroke-dasharray:2,2"/>
<text x="0" y="130" font-size="10" transform="rotate(-45,0,130)">Umami Gijón</text>
<line x1="0" y1="140" x2="0" y2="240" style="stroke:gray;stroke-width:1;stroke-dasharray:2,2"/>
<text x="0" y="130" font-size="10" transform="rotate(-45,0,130)">Umami Gijón</text>
<line x1="462" y1="140" x2="462" y2="240" style="stroke:gray;stroke-width:1;stroke-dasharray:2,2"/>
<text x="462" y="130" font-size="10" transform="rotate(-45,462,130)">La Gijonesa</text>
<line x1="520" y1="120" x2="520" y2="240" style="stroke:gray;stroke-width:1;stroke-dasharray:2,2"/>
<text x="520" y="110" font-size="10" transform="rotate(-45,520,110)">Café Dindurra</text>
<line x1="866" y1="120" x2="866" y2="240" style="stroke:gray;stroke-width:1;stroke-dasharray:2,2"/>
<text x="866" y="110" font-size="10" transform="rotate(-45,866,110)">Coalla</text>
<line x1="1040" y1="120" x2="1040" y2="240" style="stroke:gray;stroke-width:1;stroke-dasharray:2,2"/>
<text x="1040" y="110" font-size="10" transform="rotate(-45,1040,110)">Zascandil</text>
<line x1="0" y1="240" x2="1040" y2="240" style="stroke:black;stroke-width:1"/>
<line x1="0" y1="40" x2="0" y2="240" style="stroke:black;stroke-width:1"/>
<text x="10" y="245" font-size="12" text-anchor="start">0m</text>
<text x="10" y="145" font-size="12" text-anchor="start">5m</text>
<text x="10" y="45" font-size="12" text-anchor="start">10m</text>
<text x="0" y="260" font-size="12">0m</text>
<text x="208" y="260" font-size="12">360m</text>
<text x="416" y="260" font-size="12">720m</text>
<text x="624" y="260" font-size="12">1080m</text>
<text x="832" y="260" font-size="12">1440m</text>
<text x="1040" y="260" font-size="12">1800m</text>
</svg>
