<?xml version="1.0" encoding="UTF-8"?>
<svg xmlns="http://www.w3.org/2000/svg" width="1100" height="340" viewBox="0 0 1100 340">
<title>Perfil de altitud - Ruta Mixta: Tapas y Monumentos en Gijón Centro</title>
<rect x="850" y="10" width="200" height="80" fill="white" stroke="black"/>
<text x="860" y="30" font-size="12">Leyenda:</text>
<line x1="860" y1="45" x2="900" y2="45" style="stroke:red;stroke-width:2"/>
<text x="910" y="50" font-size="12">Perfil de altitud</text>
<line x1="860" y1="65" x2="900" y2="65" style="stroke:blue;stroke-dasharray:5,5"/>
<text x="910" y="70" font-size="12">Nivel del mar</text>
<line x1="0" y1="240" x2="1040" y2="240" style="stroke:blue;stroke-width:1;stroke-dasharray:5,5"/>
<text x="10" y="260" font-size="12" fill="blue">Nivel del mar (0m)</text>
<polyline points="0,140 0,140 337,120 404,140 563,100 1040,140" style="fill:none;stroke:red;stroke-width:2"/>
<line x1="0" y1="140" x2="0" y2="240" style="stroke:gray;stroke-width:1;stroke-dasharray:2,2"/>
<text x="0" y="130" font-size="10" transform="rotate(-45,0,130)">Sidrería Puente Romano</text>
<line x1="0" y1="140" x2="0" y2="240" style="stroke:gray;stroke-width:1;stroke-dasharray:2,2"/>
<text x="0" y="130" font-size="10" transform="rotate(-45,0,130)">Sidrería Puente Romano</text>
<line x1="337" y1="120" x2="337" y2="240" style="stroke:gray;stroke-width:1;stroke-dasharray:2,2"/>
<text x="337" y="110" font-size="10" transform="rotate(-45,337,110)">Iglesia de San Pedro</text>
<line x1="404" y1="140" x2="404" y2="240" style="stroke:gray;stroke-width:1;stroke-dasharray:2,2"/>
<text x="404" y="130" font-size="10" transform="rotate(-45,404,130)">Plaza Mayor de Gijón</text>
<line x1="563" y1="100" x2="563" y2="240" style="stroke:gray;stroke-width:1;stroke-dasharray:2,2"/>
<text x="563" y="90" font-size="10" transform="rotate(-45,563,90)">Basílica del Sagrado Corazón</text>
<line x1="1040" y1="140" x2="1040" y2="240" style="stroke:gray;stroke-width:1;stroke-dasharray:2,2"/>
<text x="1040" y="130" font-size="10" transform="rotate(-45,1040,130)">Sidrería Tierra Astur</text>
<line x1="0" y1="240" x2="1040" y2="240" style="stroke:black;stroke-width:1"/>
<line x1="0" y1="40" x2="0" y2="240" style="stroke:black;stroke-width:1"/>
<text x="10" y="245" font-size="12" text-anchor="start">0m</text>
<text x="10" y="145" font-size="12" text-anchor="start">5m</text>
<text x="10" y="45" font-size="12" text-anchor="start">10m</text>
<text x="0" y="260" font-size="12">0m</text>
<text x="208" y="260" font-size="12">524m</text>
<text x="416" y="260" font-size="12">1048m</text>
<text x="624" y="260" font-size="12">1572m</text>
<text x="832" y="260" font-size="12">2096m</text>
<text x="1040" y="260" font-size="12">2620m</text>
</svg>
