<?xml version="1.0" encoding="UTF-8"?>
<svg xmlns="http://www.w3.org/2000/svg" width="900" height="500" viewBox="-50 -50 900 550">
<title>Perfil de altitud - Ruta Mixta: Tapas y Monumentos en Gijón Centro</title>
<rect x="650" y="10" width="200" height="80" fill="white" stroke="black"/>
<text x="660" y="30" font-size="12">Leyenda:</text>
<line x1="660" y1="45" x2="700" y2="45" style="stroke:red;stroke-width:2"/>
<text x="710" y="50" font-size="12">Perfil de altitud</text>
<line x1="660" y1="65" x2="700" y2="65" style="stroke:blue;stroke-dasharray:5,5"/>
<text x="710" y="70" font-size="12">Nivel del mar</text>
<line x1="0" y1="400" x2="800" y2="400" style="stroke:blue;stroke-width:1;stroke-dasharray:5,5"/>
<text x="10" y="420" font-size="12" fill="blue">Nivel del mar (0m)</text>
<polyline points="0,300 0,300 85,280 102,300 142,260 262,300" style="fill:none;stroke:red;stroke-width:2"/>
<line x1="0" y1="300" x2="0" y2="400" style="stroke:gray;stroke-width:1;stroke-dasharray:2,2"/>
<text x="0" y="290" font-size="10" transform="rotate(-45,0,290)">Sidrería Puente Romano</text>
<line x1="0" y1="300" x2="0" y2="400" style="stroke:gray;stroke-width:1;stroke-dasharray:2,2"/>
<text x="0" y="290" font-size="10" transform="rotate(-45,0,290)">Sidrería Puente Romano</text>
<line x1="85" y1="280" x2="85" y2="400" style="stroke:gray;stroke-width:1;stroke-dasharray:2,2"/>
<text x="85" y="270" font-size="10" transform="rotate(-45,85,270)">Iglesia de San Pedro</text>
<line x1="102" y1="300" x2="102" y2="400" style="stroke:gray;stroke-width:1;stroke-dasharray:2,2"/>
<text x="102" y="290" font-size="10" transform="rotate(-45,102,290)">Plaza Mayor de Gijón</text>
<line x1="142" y1="260" x2="142" y2="400" style="stroke:gray;stroke-width:1;stroke-dasharray:2,2"/>
<text x="142" y="250" font-size="10" transform="rotate(-45,142,250)">Basílica del Sagrado Corazón</text>
<line x1="262" y1="300" x2="262" y2="400" style="stroke:gray;stroke-width:1;stroke-dasharray:2,2"/>
<text x="262" y="290" font-size="10" transform="rotate(-45,262,290)">Sidrería Tierra Astur</text>
<line x1="0" y1="400" x2="800" y2="400" style="stroke:black;stroke-width:1"/>
<line x1="0" y1="0" x2="0" y2="400" style="stroke:black;stroke-width:1"/>
<text x="-20" y="400" font-size="10">0.0m</text>
<text x="-20" y="300" font-size="10">5.0m</text>
<text x="-20" y="200" font-size="10">10.0m</text>
<text x="-20" y="100" font-size="10">15.0m</text>
<text x="-20" y="0" font-size="10">20.0m</text>
<text x="0" y="420" font-size="10">0m</text>
<text x="200" y="420" font-size="10">2000m</text>
<text x="400" y="420" font-size="10">4000m</text>
<text x="600" y="420" font-size="10">6000m</text>
<text x="800" y="420" font-size="10">8000m</text>
</svg>
