<?xml version="1.0" encoding="UTF-8"?>
<svg xmlns="http://www.w3.org/2000/svg" width="900" height="500" viewBox="-50 -50 900 550">
<title>Perfil de altitud - Ruta Gastronómica por Gijón Centro</title>
<rect x="650" y="10" width="200" height="80" fill="white" stroke="black"/>
<text x="660" y="30" font-size="12">Leyenda:</text>
<line x1="660" y1="45" x2="700" y2="45" style="stroke:red;stroke-width:2"/>
<text x="710" y="50" font-size="12">Perfil de altitud</text>
<line x1="660" y1="65" x2="700" y2="65" style="stroke:blue;stroke-dasharray:5,5"/>
<text x="710" y="70" font-size="12">Nivel del mar</text>
<line x1="0" y1="400" x2="800" y2="400" style="stroke:blue;stroke-width:1;stroke-dasharray:5,5"/>
<text x="10" y="420" font-size="12" fill="blue">Nivel del mar (0m)</text>
<polyline points="0,300 0,300 80,300 90,280 150,280 180,280" style="fill:none;stroke:red;stroke-width:2"/>
<line x1="0" y1="300" x2="0" y2="400" style="stroke:gray;stroke-width:1;stroke-dasharray:2,2"/>
<text x="0" y="290" font-size="10" transform="rotate(-45,0,290)">Umami Gijón</text>
<line x1="0" y1="300" x2="0" y2="400" style="stroke:gray;stroke-width:1;stroke-dasharray:2,2"/>
<text x="0" y="290" font-size="10" transform="rotate(-45,0,290)">Umami Gijón</text>
<line x1="80" y1="300" x2="80" y2="400" style="stroke:gray;stroke-width:1;stroke-dasharray:2,2"/>
<text x="80" y="290" font-size="10" transform="rotate(-45,80,290)">La Gijonesa</text>
<line x1="90" y1="280" x2="90" y2="400" style="stroke:gray;stroke-width:1;stroke-dasharray:2,2"/>
<text x="90" y="270" font-size="10" transform="rotate(-45,90,270)">Café Dindurra</text>
<line x1="150" y1="280" x2="150" y2="400" style="stroke:gray;stroke-width:1;stroke-dasharray:2,2"/>
<text x="150" y="270" font-size="10" transform="rotate(-45,150,270)">Coalla</text>
<line x1="180" y1="280" x2="180" y2="400" style="stroke:gray;stroke-width:1;stroke-dasharray:2,2"/>
<text x="180" y="270" font-size="10" transform="rotate(-45,180,270)">Zascandil</text>
<line x1="0" y1="400" x2="800" y2="400" style="stroke:black;stroke-width:1"/>
<line x1="0" y1="0" x2="0" y2="400" style="stroke:black;stroke-width:1"/>
<text x="-20" y="400" font-size="10">0.0m</text>
<text x="-20" y="300" font-size="10">5.0m</text>
<text x="-20" y="200" font-size="10">10.0m</text>
<text x="-20" y="100" font-size="10">15.0m</text>
<text x="-20" y="0" font-size="10">20.0m</text>
<text x="0" y="420" font-size="10">0m</text>
<text x="200" y="420" font-size="10">2000m</text>
<text x="400" y="420" font-size="10">4000m</text>
<text x="600" y="420" font-size="10">6000m</text>
<text x="800" y="420" font-size="10">8000m</text>
</svg>
