<?xml version="1.0" encoding="UTF-8"?>
<svg xmlns="http://www.w3.org/2000/svg" width="1100" height="2040" viewBox="0 0 1100 2040">
<title>Perfil de altitud - Senda del Cervigón</title>
<rect x="850" y="10" width="200" height="80" fill="white" stroke="black"/>
<text x="860" y="30" font-size="12">Leyenda:</text>
<line x1="860" y1="45" x2="900" y2="45" style="stroke:red;stroke-width:2"/>
<text x="910" y="50" font-size="12">Perfil de altitud</text>
<line x1="860" y1="65" x2="900" y2="65" style="stroke:blue;stroke-dasharray:5,5"/>
<text x="910" y="70" font-size="12">Nivel del mar</text>
<line x1="0" y1="1940" x2="1040" y2="1940" style="stroke:blue;stroke-width:1;stroke-dasharray:5,5"/>
<text x="10" y="1960" font-size="12" fill="blue">Nivel del mar (0m)</text>
<polyline points="0,1800 0,1800 84,1580 112,1660 955,1120 1040,100" style="fill:none;stroke:red;stroke-width:2"/>
<line x1="0" y1="1800" x2="0" y2="1940" style="stroke:gray;stroke-width:1;stroke-dasharray:2,2"/>
<text x="0" y="1790" font-size="10" transform="rotate(-45,0,1790)">Sombras de Luz</text>
<line x1="0" y1="1800" x2="0" y2="1940" style="stroke:gray;stroke-width:1;stroke-dasharray:2,2"/>
<text x="0" y="1790" font-size="10" transform="rotate(-45,0,1790)">Sombras de Luz</text>
<line x1="84" y1="1580" x2="84" y2="1940" style="stroke:gray;stroke-width:1;stroke-dasharray:2,2"/>
<text x="84" y="1570" font-size="10" transform="rotate(-45,84,1570)">Solidaridad</text>
<line x1="112" y1="1660" x2="112" y2="1940" style="stroke:gray;stroke-width:1;stroke-dasharray:2,2"/>
<text x="112" y="1650" font-size="10" transform="rotate(-45,112,1650)">La Madre del Emigrante ("La Lloca")</text>
<line x1="955" y1="1120" x2="955" y2="1940" style="stroke:gray;stroke-width:1;stroke-dasharray:2,2"/>
<text x="955" y="1110" font-size="10" transform="rotate(-45,955,1110)">Homenaje a Galileo Galilei XV</text>
<line x1="1040" y1="100" x2="1040" y2="1940" style="stroke:gray;stroke-width:1;stroke-dasharray:2,2"/>
<text x="1040" y="90" font-size="10" transform="rotate(-45,1040,90)">Mirador de la Providencia</text>
<line x1="0" y1="1940" x2="1040" y2="1940" style="stroke:black;stroke-width:1"/>
<line x1="0" y1="40" x2="0" y2="1940" style="stroke:black;stroke-width:1"/>
<text x="10" y="1945" font-size="12" text-anchor="start">0m</text>
<text x="10" y="1765" font-size="12" text-anchor="start">9m</text>
<text x="10" y="1565" font-size="12" text-anchor="start">19m</text>
<text x="10" y="1385" font-size="12" text-anchor="start">28m</text>
<text x="10" y="1185" font-size="12" text-anchor="start">38m</text>
<text x="10" y="1005" font-size="12" text-anchor="start">47m</text>
<text x="10" y="805" font-size="12" text-anchor="start">57m</text>
<text x="10" y="625" font-size="12" text-anchor="start">66m</text>
<text x="10" y="425" font-size="12" text-anchor="start">76m</text>
<text x="10" y="245" font-size="12" text-anchor="start">85m</text>
<text x="10" y="45" font-size="12" text-anchor="start">95m</text>
<text x="0" y="1960" font-size="12">0m</text>
<text x="208" y="1960" font-size="12">370m</text>
<text x="416" y="1960" font-size="12">740m</text>
<text x="624" y="1960" font-size="12">1110m</text>
<text x="832" y="1960" font-size="12">1480m</text>
<text x="1040" y="1960" font-size="12">1850m</text>
</svg>
